<svg width="24" height="24" viewBox="0 0 24 24" fill="none" xmlns="http://www.w3.org/2000/svg">
<g clip-path="url(#clip0_62_695)">
<path d="M15.9685 5.89927L14.9412 5.62891L17.0118 13.3563L17.7663 12.6085C19.9645 10.4298 18.9616 6.68701 15.9685 5.89927Z" fill="#232443" stroke="#232443" stroke-width="2" stroke-linecap="round" stroke-linejoin="round"/>
<path d="M8.43859 8.40654L13.906 1.76518L18.0471 17.22L9.9915 14.2021L12.1813 19.5881C12.6309 20.694 12.0095 21.9436 10.8565 22.2525C9.88976 22.5116 8.8814 22.0102 8.50445 21.083L6.1278 15.2374L5.16187 15.4962C3.56147 15.925 1.91646 14.9753 1.48764 13.3749C1.05881 11.7745 2.00856 10.1295 3.60896 9.70063L8.43859 8.40654Z" stroke="#232443" stroke-width="2" stroke-linecap="round" stroke-linejoin="round"/>
<path d="M18.2873 2.66187L19.2218 3.32097C22.3778 5.54677 23.4931 9.70934 21.8729 13.2149L21.3931 14.253" stroke="#232443" stroke-width="2" stroke-linecap="round"/>
</g>
<defs>
<clipPath id="clip0_62_695">
<rect width="24" height="24" fill="white"/>
</clipPath>
</defs>
</svg>
