<svg width="24" height="24" viewBox="0 0 24 24" fill="none" xmlns="http://www.w3.org/2000/svg">
<g clip-path="url(#clip0_62_1072)">
<path d="M15.9684 5.89927L14.9412 5.62891L17.0117 13.3563L17.7662 12.6085C19.9644 10.4298 18.9616 6.68701 15.9684 5.89927Z" fill="#3A3D97" stroke="#3A3D97" stroke-width="2" stroke-linecap="round" stroke-linejoin="round"/>
<path d="M8.43849 8.40654L13.9059 1.76518L18.047 17.22L9.99141 14.2021L12.1812 19.5881C12.6308 20.694 12.0094 21.9436 10.8564 22.2525C9.88966 22.5116 8.88131 22.0102 8.50436 21.083L6.1277 15.2374L5.16178 15.4962C3.56138 15.925 1.91637 14.9753 1.48754 13.3749C1.05872 11.7745 2.00847 10.1295 3.60886 9.70063L8.43849 8.40654Z" stroke="#3A3D97" stroke-width="2" stroke-linecap="round" stroke-linejoin="round"/>
<path d="M18.2874 2.66187L19.2219 3.32097C22.3778 5.54677 23.4932 9.70934 21.873 13.2149L21.3932 14.253" stroke="#3A3D97" stroke-width="2" stroke-linecap="round"/>
</g>
<defs>
<clipPath id="clip0_62_1072">
<rect width="24" height="24" fill="white"/>
</clipPath>
</defs>
</svg>
