<svg width="24" height="24" viewBox="0 0 24 24" fill="none" xmlns="http://www.w3.org/2000/svg">
<path d="M10.9166 2.04004H3.13883C2.52518 2.04004 2.02772 3.03496 2.02772 4.26226V19.8178C2.02772 21.0451 2.52518 22.04 3.13883 22.04H10.9166C11.5303 22.04 12.0277 21.0451 12.0277 19.8178V4.26226C12.0277 3.03496 11.5303 2.04004 10.9166 2.04004Z" stroke="#232443" stroke-width="2" stroke-linecap="round" stroke-linejoin="round"/>
<path d="M20.8889 10.04H13.1111C12.4975 10.04 12 10.637 12 11.3734V20.7067C12 21.4431 12.4975 22.04 13.1111 22.04H20.8889C21.5025 22.04 22 21.4431 22 20.7067V11.3734C22 10.637 21.5025 10.04 20.8889 10.04Z" stroke="#232443" stroke-width="2" stroke-linecap="round" stroke-linejoin="round"/>
<circle cx="9.02928" cy="10.6482" r="1" fill="#232443"/>
<circle cx="5.02771" cy="10.6482" r="1" fill="#232443"/>
<circle cx="19.0008" cy="13.2949" r="1" fill="#232443"/>
<circle cx="14.9992" cy="17.2949" r="1" fill="#232443"/>
<circle cx="9.02928" cy="6.64819" r="1" fill="#232443"/>
<circle cx="5.02771" cy="6.64819" r="1" fill="#232443"/>
<circle cx="5" cy="14.6482" r="1" fill="#232443"/>
<circle cx="14.9992" cy="13.2949" r="1" fill="#232443"/>
<line x1="9.02928" y1="14.6482" x2="9.02928" y2="21.04" stroke="#232443" stroke-width="2" stroke-linecap="round"/>
<line x1="19.0008" y1="17.2949" x2="19.0008" y2="21.04" stroke="#232443" stroke-width="2" stroke-linecap="round"/>
</svg>
