<svg width="26" height="26" viewBox="0 0 26 26" fill="none" xmlns="http://www.w3.org/2000/svg">
<path d="M14.2679 9.21973L15.4049 5.80078L16.5326 9.20943C17.3302 11.6201 19.2247 13.509 21.6378 14.2994L25.0008 15.4008L21.5549 16.5694C19.1894 17.3717 17.3344 19.2328 16.5399 21.601L15.3993 25.0008L14.2609 21.6033C13.4669 19.2338 11.6114 17.3715 9.24481 16.5688L5.80078 15.4008L9.16802 14.2973C11.5763 13.5081 13.4681 11.6245 14.2679 9.21973Z" stroke="#3A3D97" stroke-width="2" stroke-linecap="round" stroke-linejoin="round"/>
<path d="M4.9851 2.33208L5.80208 1L6.57769 2.28531C7.24112 3.38473 8.15946 4.3083 9.25509 4.97797L10.6 5.8L9.39155 6.50549C8.20866 7.19605 7.22289 8.17875 6.52864 9.35947L5.79924 10.6L5.03613 9.31901C4.34813 8.1641 3.38019 7.20119 2.22172 6.51921L1 5.8L2.36306 4.95989C3.43102 4.30166 4.32921 3.40149 4.9851 2.33208Z" stroke="#3A3D97" stroke-width="2" stroke-linecap="round" stroke-linejoin="round"/>
</svg>
