<svg width="25" height="24" viewBox="0 0 25 24" fill="none" xmlns="http://www.w3.org/2000/svg">
<path d="M20.5668 4H5.01128C3.78399 4 2.78906 4.89543 2.78906 6V20C2.78906 21.1046 3.78399 22 5.01128 22H20.5668C21.7941 22 22.7891 21.1046 22.7891 20V6C22.7891 4.89543 21.7941 4 20.5668 4Z" stroke="#3A3D97" stroke-width="2" stroke-linecap="round" stroke-linejoin="round"/>
<path d="M16.7891 2V6" stroke="#3A3D97" stroke-width="2" stroke-linecap="round" stroke-linejoin="round"/>
<path d="M8.78906 2V6" stroke="#3A3D97" stroke-width="2" stroke-linecap="round" stroke-linejoin="round"/>
<path d="M3.78906 9H21.7891" stroke="#3A3D97" stroke-width="2" stroke-linecap="round" stroke-linejoin="round"/>
<path d="M12.3135 11.4635C12.4632 11.0029 13.1149 11.0029 13.2646 11.4635L14.0239 13.8004C14.0908 14.0064 14.2828 14.1459 14.4994 14.1459H16.9566C17.4409 14.1459 17.6423 14.7657 17.2505 15.0504L15.2626 16.4947C15.0873 16.622 15.014 16.8477 15.0809 17.0537L15.8402 19.3906C15.9899 19.8512 15.4627 20.2343 15.0708 19.9496L13.083 18.5053C12.9077 18.378 12.6704 18.378 12.4952 18.5053L10.5073 19.9496C10.1154 20.2343 9.5882 19.8512 9.73788 19.3906L10.4972 17.0537C10.5641 16.8477 10.4908 16.622 10.3155 16.4947L8.32767 15.0504C7.93582 14.7657 8.1372 14.1459 8.62157 14.1459H11.0787C11.2953 14.1459 11.4873 14.0064 11.5542 13.8004L12.3135 11.4635Z" fill="#3A3D97"/>
</svg>
