<svg width="24" height="24" viewBox="0 0 24 24" fill="none" xmlns="http://www.w3.org/2000/svg">
<path d="M20 2H4C2.89543 2 2 2.95939 2 4.14286V14.8571C2 16.0406 2.89543 17 4 17H20C21.1046 17 22 16.0406 22 14.8571V4.14286C22 2.95939 21.1046 2 20 2Z" stroke="#3A3D97" stroke-width="2" stroke-linecap="round" stroke-linejoin="round"/>
<path d="M8 22H16" stroke="#3A3D97" stroke-width="2" stroke-linecap="round" stroke-linejoin="round"/>
<path d="M12 18V22" stroke="#3A3D97" stroke-width="2" stroke-linecap="round" stroke-linejoin="round"/>
<path d="M15.921 13.5141L18.2209 11.2141C18.3339 11.1012 18.2753 10.9079 18.1187 10.8766L15.2438 10.3016C15.1038 10.2736 14.9805 10.397 15.0084 10.5369L15.5834 13.4119C15.6148 13.5685 15.808 13.627 15.921 13.5141Z" fill="#3A3D97" stroke="#3A3D97" stroke-width="2"/>
<path d="M17.7781 13.071L18.8387 14.1317" stroke="#3A3D97" stroke-width="2" stroke-linecap="round"/>
<path d="M12.8283 8.12149C12.5454 7.83865 11.7676 7.06083 11.4141 6.70728" stroke="#3A3D97" stroke-width="2" stroke-linecap="round"/>
<path d="M15.9497 7C15.9497 6.6 15.9497 5.5 15.9497 5" stroke="#3A3D97" stroke-width="2" stroke-linecap="round"/>
<path d="M12 10.95C11.6 10.95 10.5 10.95 10 10.95" stroke="#3A3D97" stroke-width="2" stroke-linecap="round"/>
</svg>
