<svg width="32" height="32" viewBox="0 0 32 32" fill="none" xmlns="http://www.w3.org/2000/svg">
<path d="M15.9987 18.6654C17.4715 18.6654 18.6654 17.4715 18.6654 15.9987C18.6654 14.5259 17.4715 13.332 15.9987 13.332C14.5259 13.332 13.332 14.5259 13.332 15.9987C13.332 17.4715 14.5259 18.6654 15.9987 18.6654Z" stroke="#232443" stroke-width="2" stroke-linecap="round" stroke-linejoin="round"/>
<path d="M21.6518 10.3476C22.3956 11.0905 22.9857 11.9728 23.3883 12.944C23.7909 13.9152 23.9981 14.9562 23.9981 16.0076C23.9981 17.0589 23.7909 18.0999 23.3883 19.0711C22.9857 20.0423 22.3956 20.9246 21.6518 21.6676M10.3451 21.6542C9.60131 20.9112 9.01124 20.0289 8.60864 19.0577C8.20605 18.0866 7.99883 17.0455 7.99883 15.9942C7.99883 14.9429 8.20605 13.9019 8.60864 12.9307C9.01124 11.9595 9.60131 11.0772 10.3451 10.3342M25.4251 6.57422C27.9247 9.07459 29.3289 12.4654 29.3289 16.0009C29.3289 19.5364 27.9247 22.9272 25.4251 25.4276M6.57179 25.4276C4.07217 22.9272 2.66797 19.5364 2.66797 16.0009C2.66797 12.4654 4.07217 9.07459 6.57179 6.57422" stroke="#232443" stroke-width="2" stroke-linecap="round" stroke-linejoin="round"/>
</svg>
