<svg width="32" height="32" viewBox="0 0 32 32" fill="none" xmlns="http://www.w3.org/2000/svg">
<path d="M16.0013 29.3346C23.3651 29.3346 29.3346 23.3651 29.3346 16.0013C29.3346 8.63751 23.3651 2.66797 16.0013 2.66797C8.63751 2.66797 2.66797 8.63751 2.66797 16.0013C2.66797 23.3651 8.63751 29.3346 16.0013 29.3346Z" stroke="#3D3E5A" stroke-width="2" stroke-linecap="round" stroke-linejoin="round"/>
<path d="M16 24C20.4183 24 24 20.4183 24 16C24 11.5817 20.4183 8 16 8C11.5817 8 8 11.5817 8 16C8 20.4183 11.5817 24 16 24Z" stroke="#3D3E5A" stroke-width="2" stroke-linecap="round" stroke-linejoin="round"/>
<path d="M15.9987 18.6654C17.4715 18.6654 18.6654 17.4715 18.6654 15.9987C18.6654 14.5259 17.4715 13.332 15.9987 13.332C14.5259 13.332 13.332 14.5259 13.332 15.9987C13.332 17.4715 14.5259 18.6654 15.9987 18.6654Z" stroke="#3D3E5A" stroke-width="2" stroke-linecap="round" stroke-linejoin="round"/>
</svg>
