<svg width="40" height="40" viewBox="0 0 40 40" fill="none" xmlns="http://www.w3.org/2000/svg">
<path d="M29.1641 24.0753V33.0136C29.1645 33.1748 29.2073 33.3332 29.2882 33.4727C29.3691 33.6122 29.4853 33.7279 29.6251 33.8084C29.7648 33.8888 29.9233 33.9311 30.0846 33.931C30.2458 33.9309 30.4042 33.8884 30.5439 33.8077L37.9367 29.5425C38.0767 29.4617 38.1928 29.3455 38.2736 29.2056C38.3543 29.0656 38.3968 28.9069 38.3967 28.7453V18.7461L29.1641 24.0753Z" fill="#2FBEEE"/>
<path d="M36.5563 9.40234C36.4044 9.4024 36.2552 9.4426 36.1239 9.51886L29.1634 13.5418L19.9982 18.8312L10.7656 24.1574L19.4586 29.1738C19.5902 29.2491 19.7393 29.2887 19.8909 29.2887C20.0426 29.2887 20.1916 29.2491 20.3233 29.1738L29.1235 24.096L29.1634 24.0746L38.396 18.7454V10.267C38.396 10.0377 38.3049 9.81777 38.1428 9.65561C37.9806 9.49345 37.7607 9.40234 37.5313 9.40234H36.5563Z" fill="#3B3E98"/>
<path d="M10.7667 13.502L3.87369 9.525C3.73347 9.44525 3.57505 9.40301 3.41374 9.40234H2.52145C2.27748 9.40234 2.0435 9.49926 1.87099 9.67177C1.69848 9.84429 1.60156 10.0783 1.60156 10.3222V28.7445C1.60146 28.9061 1.64391 29.0649 1.72466 29.2048C1.8054 29.3448 1.92158 29.461 2.06151 29.5418L9.38689 33.7671C9.52655 33.8478 9.68495 33.8903 9.84622 33.8904C10.0075 33.8905 10.1659 33.8482 10.3057 33.7678C10.4455 33.6873 10.5616 33.5715 10.6426 33.4321C10.7235 33.2926 10.7663 33.1342 10.7667 32.973V24.1574L19.9993 18.8312L10.7667 13.502Z" fill="#6899D1"/>
</svg>
